<svg id="visual" viewBox="0 0 960 540" width="960" height="540" xmlns="http://www.w3.org/2000/svg" xmlns:xlink="http://www.w3.org/1999/xlink" version="1.1"><path d="M0 174L40 184.8C80 195.7 160 217.3 240 218.2C320 219 400 199 480 206.2C560 213.3 640 247.7 720 240.5C800 233.3 880 184.7 920 160.3L960 136L960 0L920 0C880 0 800 0 720 0C640 0 560 0 480 0C400 0 320 0 240 0C160 0 80 0 40 0L0 0Z" fill="#2a354c"></path><path d="M0 465L40 460.5C80 456 160 447 240 436.3C320 425.7 400 413.3 480 416.2C560 419 640 437 720 431.5C800 426 880 397 920 382.5L960 368L960 134L920 158.3C880 182.7 800 231.3 720 238.5C640 245.7 560 211.3 480 204.2C400 197 320 217 240 216.2C160 215.3 80 193.7 40 182.8L0 172Z" fill="#5f6d8a"></path><path d="M0 541L40 541C80 541 160 541 240 541C320 541 400 541 480 541C560 541 640 541 720 541C800 541 880 541 920 541L960 541L960 366L920 380.5C880 395 800 424 720 429.5C640 435 560 417 480 414.2C400 411.3 320 423.7 240 434.3C160 445 80 454 40 458.5L0 463Z" fill="#2a354c"></path></svg>