<svg id="visual" viewBox="0 0 960 540" width="960" height="540" xmlns="http://www.w3.org/2000/svg" xmlns:xlink="http://www.w3.org/1999/xlink" version="1.1"><rect x="0" y="0" width="960" height="540" fill="#F1F6F9"></rect><defs><linearGradient id="grad1_0" x1="43.8%" y1="0%" x2="100%" y2="100%"><stop offset="14.444444444444446%" stop-color="#f1f6f9" stop-opacity="1"></stop><stop offset="85.55555555555554%" stop-color="#f1f6f9" stop-opacity="1"></stop></linearGradient></defs><defs><linearGradient id="grad2_0" x1="0%" y1="0%" x2="56.3%" y2="100%"><stop offset="14.444444444444446%" stop-color="#f1f6f9" stop-opacity="1"></stop><stop offset="85.55555555555554%" stop-color="#f1f6f9" stop-opacity="1"></stop></linearGradient></defs><g transform="translate(960, 0)"><path d="M0 486C-59.9 473.8 -119.7 461.7 -182.9 441.6C-246.1 421.6 -312.6 393.6 -343.7 343.7C-374.7 293.7 -370.2 221.7 -388 160.7C-405.8 99.8 -445.9 49.9 -486 0L0 0Z" fill="#394867"></path></g><g transform="translate(0, 540)"><path d="M0 -486C58.7 -470.1 117.4 -454.1 179.9 -434.2C242.3 -414.3 308.6 -390.4 343.7 -343.7C378.7 -296.9 382.4 -227.2 401 -166.1C419.5 -105 452.7 -52.5 486 0L0 0Z" fill="#394867"></path></g></svg>