<svg id="visual" viewBox="0 0 960 540" width="960" height="540" xmlns="http://www.w3.org/2000/svg" xmlns:xlink="http://www.w3.org/1999/xlink" version="1.1"><rect x="0" y="0" width="960" height="540" fill="#394867"></rect><path d="M0 283L26.7 283.2C53.3 283.3 106.7 283.7 160 303.5C213.3 323.3 266.7 362.7 320 367.3C373.3 372 426.7 342 480 345C533.3 348 586.7 384 640 386.8C693.3 389.7 746.7 359.3 800 354.3C853.3 349.3 906.7 369.7 933.3 379.8L960 390L960 541L933.3 541C906.7 541 853.3 541 800 541C746.7 541 693.3 541 640 541C586.7 541 533.3 541 480 541C426.7 541 373.3 541 320 541C266.7 541 213.3 541 160 541C106.7 541 53.3 541 26.7 541L0 541Z" fill="#212A3E" stroke-linecap="round" stroke-linejoin="miter"></path></svg>